<?xml version="1.0" encoding="utf-8"?>
<!-- Generator: Adobe Illustrator 25.2.1, SVG Export Plug-In . SVG Version: 6.00 Build 0)  -->
<svg version="1.1" id="Capa_1" xmlns="http://www.w3.org/2000/svg" xmlns:xlink="http://www.w3.org/1999/xlink" x="0px" y="0px"
	 viewBox="0 0 1700 752" style="enable-background:new 0 0 1700 752;" xml:space="preserve">
<style type="text/css">
	.st0{fill:#2C3358;}
	.st1{fill:#0E0A21;}
</style>
<polygon class="st0" points="0,-0.1 49.7,-0.1 49.7,17.9 74.3,17.9 74.3,203.1 144,203.1 144,184.1 206,184.1 206,262.1 232,262.1 
	232,100.1 256,100.1 256,79.1 352.3,79.1 352.3,97.1 385.7,97.1 385.7,262.1 430.2,217.6 501,217.6 501,357.9 543,357.9 543,235.1 
	624,154.1 624,369.1 673,369.1 673,282.1 747,282.1 747,253.1 873,253.1 873,280.1 928,280.1 928,357.1 960,357.1 960,184.1 
	982,184.1 982,162.1 1061,162.1 1061,184.1 1090,184.1 1090,374.1 1211,374.1 1211,44.1 1319,44.1 1419.5,144.6 1419.5,346.1 
	1501,346.1 1501,223.1 1532,223.1 1532,199.1 1687,199.1 1687,220.1 1700,220.1 1700,752.2 0,752.2 "/>
<polygon class="st1" points="0,263.8 80.6,212.6 184.1,263.6 184.1,413.6 254.6,413.6 254.6,467.6 311.6,467.6 311.6,506.6 
	361.1,506.6 361.1,368.6 473.6,368.6 514.1,388.1 514.1,584.6 539.6,584.6 539.6,610.1 560.6,610.1 560.6,421.1 691.1,421.1 
	749.6,454.1 749.6,601.1 850,601.1 850,381 1046,381 1046,472 1055,472 1055,336.5 1134,184 1211,336.5 1211,397 1282,397 1282,325 
	1296,325 1296,308 1431,308 1431,324 1445,324 1445,385 1611,385 1611,426 1661,426 1661,412 1700,412 1700,752 0,752 "/>
</svg>
