<?xml version="1.0" encoding="utf-8"?>
<!-- Generator: Adobe Illustrator 25.2.1, SVG Export Plug-In . SVG Version: 6.00 Build 0)  -->
<svg version="1.1" id="Capa_1" xmlns="http://www.w3.org/2000/svg" xmlns:xlink="http://www.w3.org/1999/xlink" x="0px" y="0px"
	 viewBox="0 0 294 462" style="enable-background:new 0 0 294 462;" xml:space="preserve">
<style type="text/css">
	.st0{fill:#532A43;}
</style>
<path class="st0" d="M266.2,87.2c0,0,1.1-0.8,6.6,0.4c-5-5.1-36.6-24.3-50.6-22.8c0,0-4.5,1.2-10.7,6.3c0,0-1.7-3.8,0.2-6.5
	c-6.3,1.2-19.6,8.5-27.2,16.2c0,0.2,2.1-7.7,12.7-14.9c-6.7,2.1-14.8,9.4-22.5,17.1c-3,3.1-6,6.3-8.7,9.4c0.8-2.5,1.5-5.1,2.1-7.7
	c-3,8.5-6.3,6.9-6.4,6.9c3-4.5,7-15.1,9.4-20c-1.4,0.8-2.3-1.8-2.3-1.8c3.5-3.6,5.6-6.8,5.6-6.8c2.5-5.3,7.3-14.2,12.8-20.9
	c5.4-6.9,11.2-11.6,12.7-13c-4.8,2.2-6,2.6-6,2.5c7.2-5.8,16-14.5,15.9-14.4c-0.2-0.4-22,4-32.8,14.5c0,0,0.1-0.9,3-4.2
	c-7.5,2.5-20.7,14.7-21.5,19.6c0,0-2.2,0.1-2.1-1.6c-2.6,3.7-6.8,13.1-6.9,20.6c0.1,0.1-2.7-4.2,0.3-12c-1.1,1.7-2,3.5-2.9,5.3
	c-0.7-2.5-1.5-5-2.5-7.6c1.9,11.4-2.6,14.9-2.5,14.9c1.2-8.7-2-22.5-4.7-28.2c-0.5,2.4-3.6,2.1-3.6,2.1c0.3-7.1-15.4-25.4-24.4-27.7
	c2.9,5.1,2.7,6.6,2.8,6.6C99.6,4.9,76.1-0.4,76.2,0c0.3,0,7.9,17.2,14,24.4c0,0-1.4-0.1-6.1-2.8c3.3,4.1,16.5,28.9,21.1,39
	c0,0,2.4,2.8,7.3,6.2c0,0-1.7,2.5-3.7,1.8c2.7,4.4,9.1,13.9,14.1,19.4c-0.1,0-4.9,0-10.2-7.7c0.5,1,1,2,1.6,3.1
	c-5.9-5.5-11.8-10.1-16.9-11.7C108,78.9,110,86.8,110,86.6c-7.7-7.7-21-15-27.2-16.2c1.9,2.8,0.2,6.5,0.2,6.5
	c-6.1-5.1-10.7-6.3-10.7-6.3c-13.9-1.5-45.6,17.8-50.6,22.8c5.5-1.2,6.6-0.3,6.6-0.4c-10.3,4.5-27.3,22.5-28.2,23.5
	c1.1-0.6,19.9-3.3,38.5-6.6c0,0-1.2,1.2-7.2,4c7,1.6,31.6,0.6,38.1-1.8c0,0,2,2.6,0.1,4.2c6.7-0.8,21-2.3,28.4-4.7
	c0,0-0.2,1.2-1.6,2.4c-2.2,0.8-4.4,1.8-6.7,3c-1.1,0.3-2.4,0.5-3.9,0.6c2.9,0.3,5.6,0.5,8.3,0.7c-6.4,1.7-13,5.1-16.1,7.7
	c1.9-0.2,1.7,2.2,1.7,2.2c-6.1,1.3-17.9,19.6-17.8,28c2.7-4.3,3.7-4.6,3.6-4.7c-8.6,15-5,36.9-4.8,36.6c-0.5-0.2,4.4-13.5,8.9-21.2
	c0,0,0,1.2-1.1,6.1c1-1.9,4.5-8.6,10.2-14.5c5.6-6.1,13.3-11.1,17.7-13.9c0,0,2.6-2.3,5.7-6.1c0,0,2.3,0.9,1.6,2.4
	c4.1-2.5,13.4-7.3,18.3-10.5c0,0.1,0.3,3.4-7.1,7c4.3-1.5,9.1-3.4,13.5-5.6c2,3.5,5.8,5.9,10.2,5.9c3.7,0,7-1.7,9.1-4.4l-0.4,30
	c-1.6,195.6,4.2,183.1-5.1,297l23.9,1.6c5.5-115.9,0.2-102.2-4.8-298.7l-0.5-23.4c2.1,1.8,4.7,2.8,7.6,2.8c6,0,10.9-4.4,11.6-10.2
	c0.6,0.4,1.3,0.8,2,1.2c-0.8-0.6-1.4-1.1-1.9-1.7c0-0.4,0.1-0.7,0.1-1.1c0-0.8-0.1-1.6-0.2-2.4c3.6,3.7,9.4,8.5,12.2,11.2
	c-0.3-1.4,2.1-1.4,2.1-1.4c2,3.9,4.1,6.6,4.1,6.6c3.7,3.6,9.8,10,13.9,16.4c4.2,6.4,6.6,12.5,7.4,14.2c-0.5-4.6-0.5-5.7-0.5-5.7
	c2.8,7.6,7.7,17.3,7.6,17.2c0.4,0,2.7-19.5-3.1-31.4c0,0,0.7,0.3,2.7,3.6c0-6.9-6.5-21.3-10.4-23.4c0,0,0.5-1.8,1.9-1.4
	c-2.4-3.2-9.1-9.3-15.3-11.5c-0.1,0,4.2-1.1,10,3.5c-6-7.1-13.1-11.6-20.8-13.8c5-0.3,10.5-0.7,16.6-1.3c-11.5-1.3-12.1-6-12.2-6.1
	c7.4,2.3,21.7,3.8,28.4,4.7c-1.9-1.6,0.1-4.2,0.1-4.2c6.4,2.4,31,3.4,38.1,1.8c-6-2.9-7.2-4-7.2-4c18.6,3.3,37.5,6,38.5,6.6
	C293.4,109.8,276.5,91.8,266.2,87.2z"/>
</svg>
