<svg id="Capa_1" data-name="Capa 1" xmlns="http://www.w3.org/2000/svg" xmlns:xlink="http://www.w3.org/1999/xlink" viewBox="0 0 817.07 817.07"><defs><style>.cls-1{fill:url(#Degradado_sin_nombre_27);}.cls-2{fill:url(#Degradado_sin_nombre_27-2);}.cls-3{fill:url(#Degradado_sin_nombre_27-3);}.cls-4{fill:url(#Degradado_sin_nombre_27-4);}.cls-5{fill:url(#Degradado_sin_nombre_27-5);}.cls-6{fill:url(#Degradado_sin_nombre_27-6);}.cls-7{fill:url(#Degradado_sin_nombre_27-7);}</style><linearGradient id="Degradado_sin_nombre_27" x1="409.32" y1="906.33" x2="409.32" y2="61.13" gradientUnits="userSpaceOnUse"><stop offset="0" stop-color="#ff0101"/><stop offset="0.85" stop-color="#ffd65d"/></linearGradient><linearGradient id="Degradado_sin_nombre_27-2" x1="409.32" y1="906.33" x2="409.32" y2="61.13" xlink:href="#Degradado_sin_nombre_27"/><linearGradient id="Degradado_sin_nombre_27-3" x1="409.32" y1="906.33" x2="409.32" y2="61.13" xlink:href="#Degradado_sin_nombre_27"/><linearGradient id="Degradado_sin_nombre_27-4" x1="409.32" y1="906.33" x2="409.32" y2="61.13" xlink:href="#Degradado_sin_nombre_27"/><linearGradient id="Degradado_sin_nombre_27-5" x1="409.32" y1="906.33" x2="409.32" y2="61.13" xlink:href="#Degradado_sin_nombre_27"/><linearGradient id="Degradado_sin_nombre_27-6" x1="409.32" y1="906.33" x2="409.32" y2="61.13" xlink:href="#Degradado_sin_nombre_27"/><linearGradient id="Degradado_sin_nombre_27-7" x1="409.32" y1="906.33" x2="409.32" y2="61.13" xlink:href="#Degradado_sin_nombre_27"/></defs><path class="cls-1" d="M302.14,805.48a411.59,411.59,0,0,0,214.36,0Z" transform="translate(-0.78 -2.61)"/><path class="cls-2" d="M646.17,744.05H172.46q15.79,11.26,32.66,21H613.51Q630.37,755.32,646.17,744.05Z" transform="translate(-0.78 -2.61)"/><path class="cls-3" d="M714.61,682.63H104q12.94,14.55,27.22,27.82H687.38Q701.65,697.19,714.61,682.63Z" transform="translate(-0.78 -2.61)"/><path class="cls-4" d="M759.78,621.2H58.86a408,408,0,0,0,23.27,34.63H736.5A408.13,408.13,0,0,0,759.78,621.2Z" transform="translate(-0.78 -2.61)"/><path class="cls-5" d="M790,559.78H28.67a408,408,0,0,0,18.92,41.43H771A408.09,408.09,0,0,0,790,559.78Z" transform="translate(-0.78 -2.61)"/><path class="cls-6" d="M808.52,498.35H10.11a405,405,0,0,0,13.66,48.24H794.86A403.14,403.14,0,0,0,808.52,498.35Z" transform="translate(-0.78 -2.61)"/><path class="cls-7" d="M817.85,411.15C817.85,185.52,635,2.61,409.32,2.61S.78,185.52.78,411.15a410.79,410.79,0,0,0,8,80.83H809.85A410,410,0,0,0,817.85,411.15Z" transform="translate(-0.78 -2.61)"/></svg>